<svg width="22" height="20" viewBox="0 0 22 20" fill="none" xmlns="http://www.w3.org/2000/svg">
<path d="M8.75 3.75H13.75M8.75 0.75H16.75M5.75 7.25V11.75C5.75 12.693 5.75 13.164 5.457 13.457C5.164 13.75 4.693 13.75 3.75 13.75H2.75C1.807 13.75 1.336 13.75 1.043 13.457C0.75 13.164 0.75 12.693 0.75 11.75V9.25C0.75 8.307 0.75 7.836 1.043 7.543C1.336 7.25 1.807 7.25 2.75 7.25H5.75ZM5.75 7.25H10.75M14.34 15.49C13.711 15.912 12.063 16.772 13.067 17.848C13.557 18.374 14.104 18.75 14.79 18.75H18.71C19.396 18.75 19.943 18.374 20.433 17.848C21.437 16.772 19.789 15.912 19.16 15.491C18.449 15.0082 17.6094 14.7501 16.75 14.7501C15.8906 14.7501 15.051 15.0072 14.34 15.49ZM18.75 10.25C18.75 10.7804 18.5393 11.2891 18.1642 11.6642C17.7891 12.0393 17.2804 12.25 16.75 12.25C16.2196 12.25 15.7109 12.0393 15.3358 11.6642C14.9607 11.2891 14.75 10.7804 14.75 10.25C14.75 9.71957 14.9607 9.21086 15.3358 8.83579C15.7109 8.46071 16.2196 8.25 16.75 8.25C17.2804 8.25 17.7891 8.46071 18.1642 8.83579C18.5393 9.21086 18.75 9.71957 18.75 10.25ZM5.25 2.75C5.25 3.28043 5.03929 3.78914 4.66421 4.16421C4.28914 4.53929 3.78043 4.75 3.25 4.75C2.71957 4.75 2.21086 4.53929 1.83579 4.16421C1.46071 3.78914 1.25 3.28043 1.25 2.75C1.25 2.21957 1.46071 1.71086 1.83579 1.33579C2.21086 0.960714 2.71957 0.75 3.25 0.75C3.78043 0.75 4.28914 0.960714 4.66421 1.33579C5.03929 1.71086 5.25 2.21957 5.25 2.75Z" stroke="white" stroke-width="1.5" stroke-linecap="round" stroke-linejoin="round"/>
</svg>
