<svg width="23" height="22" viewBox="0 0 23 22" fill="none" xmlns="http://www.w3.org/2000/svg">
<g clip-path="url(#clip0_40002025_30827)">
<path d="M0.507751 0H7.10773C8.62655 0 9.85773 1.23122 9.85773 2.75V9.35H3.25775C1.73897 9.35 0.507751 8.11877 0.507751 6.6V0Z" fill="#E58934"/>
<path d="M22.5077 0H15.9077C14.3889 0 13.1577 1.23122 13.1577 2.75V9.35H19.7577C21.2765 9.35 22.5077 8.11877 22.5077 6.6V0Z" fill="#E58934"/>
<path d="M9.85773 12.6499H3.25775C1.73897 12.6499 0.507751 13.8811 0.507751 15.3999V21.9999H7.10773C8.62655 21.9999 9.85773 20.7687 9.85773 19.2499V12.6499Z" fill="#E58934"/>
<path d="M13.1577 12.6499H19.7577C21.2765 12.6499 22.5077 13.8811 22.5077 15.3999V21.9999H15.9077C14.3889 21.9999 13.1577 20.7687 13.1577 19.2499V12.6499Z" fill="#E58934"/>
</g>
<defs>
<clipPath id="clip0_40002025_30827">
<rect width="22.55" height="22" fill="white"/>
</clipPath>
</defs>
</svg>
