<svg width="1440" height="427" viewBox="0 0 1440 427" fill="none" xmlns="http://www.w3.org/2000/svg">
<g opacity="0.6" clip-path="url(#clip0_8_523)">
<g clip-path="url(#clip1_8_523)">
<g clip-path="url(#clip2_8_523)">
<path d="M486.619 347.154C551.362 341.437 631.4 317.963 684.889 267.523C746.252 209.652 757.251 190.949 818.889 109.812C851.742 66.5654 971.355 -21.9633 1066.6 7.93748C1109.44 21.3876 1159.89 63.3472 1239.66 129.689C1255.09 142.515 1283.74 166.954 1303.97 158.019C1316.99 152.273 1326.57 138.492 1320.06 127.389C1309.77 109.831 1212.56 130.04 1185.67 191.715C1176.46 212.851 1178.32 232.151 1179.92 246.851C1186.9 310.855 1234.53 370.221 1294.78 398.465C1358.31 428.234 1418.74 415.399 1439.51 409.947" stroke="url(#paint0_linear_8_523)" stroke-width="3.78611" stroke-miterlimit="10"/>
<path d="M428.38 374.035C430.812 372.36 435.412 373.723 437.75 371.972C440.088 370.221 440.116 365.413 442.388 363.567C444.66 361.721 449.373 362.696 451.569 360.756C453.765 358.815 453.377 354.016 455.479 351.991C457.58 349.965 462.369 350.495 464.367 348.366C466.364 346.236 465.521 341.494 467.414 339.269C469.307 337.045 474.116 337.083 475.886 334.745C477.656 332.407 476.293 327.798 477.911 325.365C479.53 322.932 484.319 322.412 485.786 319.885C487.254 317.357 485.323 312.946 486.619 310.325C487.916 307.703 492.583 306.548 493.69 303.841C494.93 300.793 492.582 296.174 493.718 292.643C494.75 289.425 499.35 287.05 500.211 283.519C501.026 280.187 498.044 275.966 498.65 272.435C499.256 268.905 503.458 266.027 503.799 262.487C504.14 258.947 500.562 255.284 500.609 251.754C500.656 248.223 504.329 244.598 504.045 241.096C503.761 237.593 499.549 234.602 498.886 231.167C498.224 227.731 500.997 223.339 499.899 220.016C498.801 216.694 493.974 214.877 492.384 211.744C490.794 208.611 492.185 203.651 490.084 200.792C487.982 197.934 482.89 197.858 480.297 195.378C477.731 192.917 477.324 187.759 474.381 185.762C471.437 183.764 466.487 185.298 463.259 183.764C460.031 182.231 458.138 177.442 454.731 176.363C451.323 175.284 446.998 178.114 443.486 177.479C439.974 176.845 436.927 172.671 433.368 172.453C429.809 172.236 426.259 176.012 422.71 176.202C419.16 176.391 415.194 173.04 411.702 173.637C408.209 174.233 405.587 178.729 402.189 179.742C398.791 180.754 394.115 178.445 390.888 179.874C387.66 181.303 386.24 186.32 383.24 188.185C380.239 190.049 375.099 189.112 372.411 191.422C369.42 193.977 369.373 199.429 366.874 202.449C364.375 205.468 359.037 206.491 357.021 209.86C355.005 213.23 356.623 218.426 355.09 222.051C353.556 225.677 348.71 228.109 347.65 231.886C346.59 235.663 349.449 240.301 348.833 244.172C348.218 248.043 344.063 251.574 343.883 255.483C343.703 259.392 347.527 263.301 347.792 267.191C348.057 271.082 344.811 275.521 345.53 279.326C346.249 283.131 350.897 286.094 352.108 289.757C353.32 293.42 351.37 298.626 353.112 302.061C354.853 305.497 360.182 306.955 362.52 310.012C364.972 313.23 365.009 318.777 368.133 321.55C371.257 324.324 376.68 323.623 380.239 325.867C383.609 327.987 385.426 333.25 389.26 335.001C392.875 336.657 398.081 334.641 402.085 335.976C405.871 337.244 408.767 341.995 412.866 342.98C416.964 343.964 421.517 341.002 425.663 341.674C429.809 342.346 433.197 346.596 437.362 347.012C441.527 347.429 445.72 343.926 449.894 344.106C454.068 344.286 457.94 348.148 462.104 348.129C466.269 348.11 470.14 344.22 474.296 344.021C478.451 343.822 482.682 347.324 486.818 346.955" stroke="#E58934" stroke-width="3.78611" stroke-miterlimit="10"/>
<path d="M1.0033 398.456C27.0707 382.261 66.0298 364.258 109.447 370.893C144.241 376.212 161.402 393.449 182.954 405.347C249.845 442.28 358.28 422.242 429.449 373.184" stroke="#E58934" stroke-width="3.78611" stroke-miterlimit="10"/>
</g>
</g>
</g>
<defs>
<linearGradient id="paint0_linear_8_523" x1="486.458" y1="209.652" x2="1440" y2="209.652" gradientUnits="userSpaceOnUse">
<stop stop-color="#4F46E5"/>
<stop offset="1" stop-color="#7C3AED"/>
</linearGradient>
<clipPath id="clip0_8_523">
<rect width="1440" height="426.28" fill="white"/>
</clipPath>
<clipPath id="clip1_8_523">
<rect width="1440" height="426.28" fill="white"/>
</clipPath>
<clipPath id="clip2_8_523">
<rect width="1440" height="426.288" fill="white" transform="translate(0 -0.00390625)"/>
</clipPath>
</defs>
</svg>
